<?xml version="1.0" encoding="UTF-8"?>
<svg width="19px" height="20px" viewBox="0 0 19 20" version="1.1" xmlns="http://www.w3.org/2000/svg" xmlns:xlink="http://www.w3.org/1999/xlink">
    <!-- Generator: Sketch 51.3 (57544) - http://www.bohemiancoding.com/sketch -->
    <title>Shape</title>
    <desc>Created with Sketch.</desc>
    <defs></defs>
    <g id="Page-1" stroke="none" stroke-width="1" fill="none" fill-rule="evenodd">
        <g id="mdi_weather-windy" transform="translate(0.000000, -32.000000)" fill="#D8D8D8" fill-rule="nonzero">
            <path d="M1,40 C0.44771525,40 0,39.5522847 0,39 C0,38.4477153 0.44771525,38 1,38 L9,38 C9.90530167,38.0001933 10.6978413,37.3922486 10.9322311,36.5178159 C11.1666208,35.6433832 10.7844036,34.7205475 10.000376,34.2679198 C9.2163484,33.815292 8.22604831,33.9457584 7.586,34.586 C7.19362111,34.9649722 6.56991522,34.9595524 6.18418142,34.5738186 C5.79844763,34.1880848 5.79302779,33.5643789 6.172,33.172 C7.45209663,31.8915168 9.4326968,31.6305841 11.000752,32.5358395 C12.5688072,33.441095 13.3332417,35.2867664 12.8644621,37.0356318 C12.3956825,38.7844973 10.8106033,40.0003866 9,40 L1,40 Z M16,42 C16.4526508,42.0000967 16.8489206,41.6961243 16.9661155,41.258908 C17.0833104,40.8216916 16.8922018,40.3602738 16.500188,40.1339599 C16.1081742,39.907646 15.6130242,39.9728792 15.293,40.293 C14.9006211,40.6719722 14.2769152,40.6665524 13.8911814,40.2808186 C13.5054476,39.8950848 13.5000278,39.2713789 13.879,38.879 C14.8390725,37.9186376 16.3245226,37.722938 17.500564,38.4018797 C18.6766054,39.0808213 19.2499313,40.4650748 18.8983466,41.7767239 C18.5467619,43.0883729 17.3579525,44.00029 16,44 L2,44 C1.44771525,44 1,43.5522847 1,43 C1,42.4477153 1.44771525,42 2,42 L16,42 Z M15,48 L1,48 C0.44771525,48 0,47.5522847 0,47 C0,46.4477153 0.44771525,46 1,46 L15,46 C16.3579525,45.99971 17.5467619,46.9116271 17.8983466,48.2232761 C18.2499313,49.5349252 17.6766054,50.9191787 16.500564,51.5981203 C15.3245226,52.277062 13.8390725,52.0813624 12.879,51.121 C12.6190434,50.8699255 12.5147874,50.4981221 12.6063028,50.1484927 C12.6978183,49.7988632 12.9708632,49.5258183 13.3204927,49.4343028 C13.6701221,49.3427874 14.0419255,49.4470434 14.293,49.707 C14.6130242,50.0271208 15.1081742,50.092354 15.500188,49.8660401 C15.8922018,49.6397262 16.0833104,49.1783084 15.9661155,48.741092 C15.8489206,48.3038757 15.4526508,47.9999033 15,48 Z" id="Shape"></path>
        </g>
    </g>
</svg>